<svg id="Layer_1" data-name="Layer 1" xmlns="http://www.w3.org/2000/svg" viewBox="0 0 2698.23 2672.44"><rect x="670.48" y="1238.38" width="1152.97" height="1070.27" rx="221.43" style="fill:#fff"/><path d="M2350.25,1889.14c121.79,0,221.43,99.64,221.43,221.43V2738c0,121.79-99.64,221.43-221.43,221.43H1640.14c-121.79,0-221.43-99.64-221.43-221.43v-627.4c0-121.79,99.64-221.43,221.43-221.43h710.11m0-35H1640.14a253.34,253.34,0,0,0-99.66,20.26A258.44,258.44,0,0,0,1404,2010.91a253.34,253.34,0,0,0-20.26,99.66V2738a253.42,253.42,0,0,0,20.26,99.67,258.53,258.53,0,0,0,136.51,136.51,253.51,253.51,0,0,0,99.66,20.25h710.11a253.51,253.51,0,0,0,99.66-20.25,258.62,258.62,0,0,0,136.51-136.51,253.6,253.6,0,0,0,20.26-99.67v-627.4a253.52,253.52,0,0,0-20.26-99.66,258.53,258.53,0,0,0-136.51-136.51,253.34,253.34,0,0,0-99.66-20.26Z" transform="translate(-748.22 -650.76)" style="fill:#371a45"/><path d="M2555.81,2571.46c-110.56,13-220.76,16.14-220.76,16.14s-56.12-279.84-71.68-499.28c-11.46-162.59-.68-292,71.68-249.77,33.29,19.42,71.63,56,111.61,102.37,149.94,174.06,322.22,486.59,331.68,551.45C2784.43,2534.07,2670,2558,2555.81,2571.46Z" transform="translate(-748.22 -650.76)" style="fill:#fff"/><path d="M2320.25,2606.24l-3-15c-.34-1.71-34.66-173.66-56.87-351.71-13.1-105-19.5-191.63-19-257.59.63-90.09,13.71-141.17,41.16-160.78,12.05-8.61,32.55-15.3,61.75,1.74,96.26,56.16,218.43,235.06,282.69,336.71,42.86,67.8,83.89,139.06,115.54,200.66,22.29,43.41,49.74,101.11,53.9,129.51,1.2,8.25.39,20.76-10.3,33.5-15.47,18.43-47.61,32.84-101.13,45.36-39.25,9.18-89.68,17.08-149.9,23.48-102,10.83-198.48,13.7-199.44,13.73ZM2310,1848.68a9.91,9.91,0,0,0-6.36,2c-11.87,8.47-47.46,61.22-7.19,384.08,18.23,146.22,44.71,288.37,53.5,334.07,31-1.25,104.71-4.84,181.45-13,178.16-18.95,218-45.5,226.8-56,2.45-2.92,2.25-4.27,2.17-4.84-5.17-35.35-72.38-170.77-164.19-316-106.33-168.19-204.84-286.55-270.27-324.72C2318.47,1850,2313.43,1848.68,2310,1848.68Z" transform="translate(-748.22 -650.76)" style="fill:#371a45"/><path d="M1772.46,1828.23l-22.38,169.27-12.73,96.24-27.15,205.48S1660.58,2333,1578,2359.7a658.49,658.49,0,0,1-105.55,24.84A623.78,623.78,0,0,1,1254,2379c-206.52-42.3-330.45-195.7-384.12-272.84-103.69-148.85-119.66-189.1-90.82-251.77,22-48,59.71-56.81,59.71-56.81s-1.86-38.38,28.52-52c91-40.88,208.34,68.31,208.34,68.31s4.37-117.43,67.22-90.32c43.3,18.69,53.12,146.54,53.12,146.54s58.13,74.67,150.45,84.59c48.25,5.18,115-8.82,181.33-29.15.77-.23,1.54-.46,2.32-.73,35.34-10.92,70.45-23.56,102.6-36.07,14.42-5.59,28.24-11.18,41.21-16.55C1731.85,1848.15,1772.46,1828.23,1772.46,1828.23Z" transform="translate(-748.22 -650.76)" style="fill:#fff"/><g style="opacity:0.35000000000000003"><path d="M869.89,2106.16c53.7,77.11,177.63,230.54,384.13,272.84,129.35,26.45,242.7,7,324-19.31,82.55-26.71,132.16-60.48,132.16-60.48l3.63-162.15s-56.24-54.2-108.62-32.1c-62.94,26.55-42.77,116.8-132.65,141.9-249.89,69.78-452.89-57.7-518.21-113.68-90.62-77.64-114.26-126.53-127-146.71-26.39-41.75-46.77-74.57-58.26-104C757.38,1932.22,782.37,1980.49,869.89,2106.16Z" transform="translate(-748.22 -650.76)" style="fill:#371a45"/></g><path d="M1378.65,2409.78a639.37,639.37,0,0,1-128.27-13c-92.83-19-179.44-61.82-257.41-127.23-50.18-42.11-96.61-93.59-138-153-50.5-72.53-82.6-122.35-97.24-162.37-14-38.34-12.64-69.47,4.78-107.43,17.15-37.38,43.08-54.57,58.75-61.94,2.57-19.22,12.53-44.15,38.59-55.85,74-33.27,159.47,18.21,201.76,49.88.42-2.15.87-4.35,1.37-6.58,7-31.44,19.11-52.78,36-63.41,10.35-6.53,27.62-12.18,51.17-2,23.89,10.32,41.32,40.71,53.3,92.9a532.05,532.05,0,0,1,10.19,63c12.86,14.55,63.11,66.16,134.8,73.84,130.85,14,413.19-123.29,416-124.68a18.19,18.19,0,0,1,26,18.72l-62.22,471a18.22,18.22,0,0,1-7.8,12.66c-2.08,1.41-52,35.05-135,62.15a675.57,675.57,0,0,1-148.6,30.76Q1407.77,2409.78,1378.65,2409.78ZM843,1815.25c-2.35.64-30.13,9-47.43,46.68-23.31,50.8-17.59,80.41,89.25,233.84,100.44,144.24,229.36,236,372.84,265.39,130.73,26.77,244.28,4.25,316.52-19.35,61.24-20,103.48-43.88,119.09-53.41l56.76-429.61c-29.66,13.54-78.15,34.81-132.59,55.21-121.16,45.4-213,65.16-272.93,58.74-98.87-10.59-160.31-88.19-162.87-91.49a18.21,18.21,0,0,1-3.79-9.78,495.3,495.3,0,0,0-10-64c-12.68-55-27.83-65.38-32.17-67.26-10.87-4.69-15.56-1.74-17.32-.62-15.29,9.62-23.58,49.59-24.58,74.9a18.19,18.19,0,0,1-30.57,12.62c-1.08-1-109.55-100.45-188.46-65-18.19,8.17-17.85,32.81-17.8,34.59A17.47,17.47,0,0,1,843,1815.25Z" transform="translate(-748.22 -650.76)" style="fill:#371a45"/><path d="M1090.62,1813.83a41.6,41.6,0,0,1-1.36,13.8c-.51,2.08-1.14,3.88-1.78,5.73s-1.36,3.49-2.06,5.07a189.54,189.54,0,0,1-8.92,17c-3,5.16-5.81,10.07-8.46,15l-1.94,3.69c-.61,1.24-1.26,2.47-1.85,3.72l-1.72,3.76-1.64,3.8-1.49,3.87-1.38,3.92c-.47,1.31-.82,2.65-1.24,4s-.77,2.69-1.13,4a132,132,0,0,0-3.26,16.8,164.54,164.54,0,0,0-1.37,17.68c-.15,3-.09,6-.12,9.12-.05,1.54.08,3.06.09,4.61s.08,3.1.07,4.67v.12a2.17,2.17,0,0,1-2.19,2.18,2.2,2.2,0,0,1-1.95-1.18,123.47,123.47,0,0,1-7.59-17.69,118.14,118.14,0,0,1-4.55-59.4l1-5c.39-1.66.82-3.31,1.23-5s.93-3.27,1.39-4.91,1-3.22,1.58-4.84a156.36,156.36,0,0,1,7.7-18.17c2.77-5.69,5.74-11.06,8.13-15.72a96.9,96.9,0,0,0,4.8-10.63l1.77-4.33a14.68,14.68,0,0,1,28.23,4.33Z" transform="translate(-748.22 -650.76)" style="fill:#371a45"/><path d="M1234,2391.49a12.51,12.51,0,0,1-5.58-23.7c50.44-25.09,84.89-103.39,99.63-226.43,11.43-95.37,6.69-184.05,6.64-184.94a12.5,12.5,0,1,1,25-1.39c0,.9,4.91,91.47-6.73,189-6.9,57.69-18.15,106.64-33.45,145.49-19.8,50.28-46.69,84.16-79.91,100.68A12.47,12.47,0,0,1,1234,2391.49Z" transform="translate(-748.22 -650.76)" style="fill:#371a45"/><g style="opacity:0.35000000000000003"><path d="M2847.33,3196.08v-2.55C2827.33,3194.4,2847.33,3196.08,2847.33,3196.08Z" transform="translate(-748.22 -650.76)" style="fill:#371a45"/></g><path d="M2595,2889H1394.11s7.33-207.25,78.37-504.46a3336,3336,0,0,1,119.83-393.45q19-50.62,40.39-102.38a2950.27,2950.27,0,0,1,140.81-293.21h442.11c44.89,81.46,84.5,162.87,119.43,243,22.6,51.85,43.25,103.15,62.08,153.54,82.18,219.67,130.43,422.42,158.68,579.37C2590.64,2765.07,2595,2889,2595,2889Z" transform="translate(-748.22 -650.76)" style="fill:#fff"/><path d="M2430.15,2146.65c23.22,25.91,33.82,56.07,43.63,86.36,4.91,15.16,9.77,30.33,14.4,45.58,2.31,7.62,4.7,15.23,6.77,22.92s4.2,15.37,6.28,23.06l6.08,23.11c2,7.71,4,15.41,5.9,23.15l11.05,46.5c1.79,7.76,3.77,15.47,5.53,23.24l5.26,23.31,5.41,23.26c1.82,7.76,3.7,15.49,5.4,23.27l10.42,46.63c1.79,7.76,3.33,15.58,5,23.37l4.88,23.38,2.45,11.7,1.21,5.84,1.15,5.87,4.57,23.45q2.28,11.73,4.74,23.42c1.58,7.82,3.17,15.62,4.83,23.42,7,31.13,12,62.66,14.15,94.61.28,4,.58,8,.78,12l.51,12c.26,8,.48,16,.37,24.1s-.24,16.1-.75,24.2-1.14,16.17-2.36,24.33a2.88,2.88,0,0,1-5.54.59v0c-5.74-15.25-10.43-30.57-14.86-45.89q-3.27-11.51-6.31-23l-2.92-11.53q-1.38-5.78-2.83-11.54c-3.72-15.39-7-30.82-10-46.32q-2.13-11.64-3.89-23.34c-1.27-7.79-2.45-15.59-3.66-23.39s-2.42-15.6-3.68-23.4-2.83-15.53-4.34-23.28l-4.53-23.24-1.13-5.82-1.21-5.79-2.42-11.6-4.84-23.18c-1.64-7.73-3.17-15.47-4.94-23.17l-10.34-46.24c-1.66-7.72-3.59-15.38-5.43-23.06l-5.65-23-5.8-23c-.93-3.84-2-7.64-3-11.45l-3.11-11.44-12.49-45.7c-4.33-15.19-8.74-30.35-12.95-45.57-2.1-7.61-4.2-15.21-6.24-22.84l-1.52-5.72-1.62-5.7-3.17-11.41c-4.23-15.21-8.24-30.49-12.19-45.79l-2.9-11.49c-1-3.83-2-7.63-3.06-11.45-2-7.64-3.72-15.38-5-23.25a204.19,204.19,0,0,1-2.5-24.06q-.27-6.14-.06-12.43a101,101,0,0,1,1.18-12.85l0-.17a3.06,3.06,0,0,1,3.52-2.5A3,3,0,0,1,2430.15,2146.65Z" transform="translate(-748.22 -650.76)" style="fill:#371a45"/><path d="M1391.31,2888.9a90.37,90.37,0,0,1-4.31-12.32c-1.2-4.11-2.09-8.19-2.87-12.29a182.2,182.2,0,0,1-3-24.48c-.22-4.07-.37-8.14-.35-12.18s.16-8.08.36-12.12l.68-12.09c.21-4,.46-8.06.79-12.08,1.25-16.08,2.46-32.18,4.35-48.18.85-8,1.79-16,2.74-24,.45-4,1.07-8,1.61-12l1.69-12,3.54-23.91c1.23-8,2.68-15.88,4-23.82,2.77-15.87,5.36-31.77,8.51-47.56s5.86-31.65,9-47.44,6.28-31.56,9.33-47.36c.78-3.95,1.49-7.91,2.33-11.84l2.52-11.8,5-23.61,5-23.6c.43-2,.83-3.94,1.28-5.9l1.38-5.87,2.75-11.75,11-47c.89-3.92,1.89-7.82,2.88-11.72s1.94-7.8,2.86-11.72c1.85-7.83,3.7-15.66,5.47-23.51s3.58-15.7,5.46-23.53,4.06-15.58,6.32-23.3,4.76-15.39,7.33-23,5.32-15.22,8.09-22.79l4.28-11.31c.72-1.89,1.51-3.75,2.3-5.61s1.55-3.73,2.37-5.59c3.22-7.42,6.5-14.82,10-22.16s7-14.64,10.8-21.86,7.68-14.39,12-21.41a2.87,2.87,0,0,1,5.31,1.66v0c-1.8,33-8,64.4-14.09,95.8-1.56,7.83-3.17,15.65-4.92,23.42s-3.67,15.5-5.7,23.19c-4.22,15.34-8.45,30.68-12.87,46-2.22,7.65-4.36,15.31-6.5,23-1.08,3.84-2.09,7.68-3.12,11.53s-2,7.69-2.92,11.57l-10.91,46.5-2.72,11.62-1.37,5.81c-.44,1.94-.83,3.89-1.26,5.83l-5,23.36-5,23.35-2.49,11.67c-.84,3.89-1.53,7.81-2.31,11.72-12.78,62.39-21.37,125.53-29.72,188.53l-3.24,23.62c-1,7.88-2,15.76-3.12,23.63l-6.44,47.23c-1.16,7.86-2.11,15.74-3.16,23.61-.55,3.93-1.14,7.87-1.87,11.79s-1.42,7.83-2.3,11.74a242.74,242.74,0,0,1-6.5,23.4c-1.28,3.89-2.81,7.79-4.38,11.66a109.78,109.78,0,0,1-5.52,11.66l0,0a3.11,3.11,0,0,1-4.23,1.2A3.06,3.06,0,0,1,1391.31,2888.9Z" transform="translate(-748.22 -650.76)" style="fill:#371a45"/><path d="M1740,2627.52c-68.5,27.72-174.49,21.92-246.76,13.18a77.6,77.6,0,0,1-67.38-88.43h0a77.59,77.59,0,0,1,80.31-66.21c67.6,3.17,169,4.65,233.19-9.59" transform="translate(-748.22 -650.76)" style="fill:#fff"/><g style="opacity:0.35000000000000003"><path d="M1740,2627.51c-68.51,27.76-174.51,21.91-246.76,13.22a77.74,77.74,0,0,1-59.4-113.07,77.45,77.45,0,0,0,59.4,41.05c72.13,8.75,178,14.55,246.46-13Z" transform="translate(-748.22 -650.76)" style="fill:#371a45"/></g><path d="M1603.82,2666.11c-39.62,0-79-3.27-112.76-7.35a95.84,95.84,0,0,1,16-190.87c99.57,4.67,180.68,1.41,228.4-9.18,9.58-2.12,33.38-2.19,47.43,43,14.27,45.89,12.69,123-36,142.7h0C1706.65,2660.64,1655.05,2666.11,1603.82,2666.11Zm-101.34-161.94a59.45,59.45,0,0,0-7,118.47c103.33,12.5,187.77,8.25,237.74-12h0c14.84-6,19.1-30.06,20.25-40.12,4-35.19-6.72-67.72-13.42-75.59-65.13,13.69-163.25,12.64-234.68,9.3C1504.37,2504.19,1503.42,2504.17,1502.48,2504.17Z" transform="translate(-748.22 -650.76)" style="fill:#371a45"/><path d="M2263.88,2627.52c68.49,27.72,174.49,21.92,246.75,13.18a77.6,77.6,0,0,0,67.39-88.43h0a77.59,77.59,0,0,0-80.32-66.21c-67.59,3.17-169,4.65-233.18-9.59" transform="translate(-748.22 -650.76)" style="fill:#fff"/><g style="opacity:0.35000000000000003"><path d="M2510.62,2640.73c-72.26,8.69-178.26,14.54-246.77-13.22l.3-72.5c68.52,27.58,174.33,21.79,246.47,13a77.25,77.25,0,0,0,59.22-40.75,77.65,77.65,0,0,1-59.22,113.43Z" transform="translate(-748.22 -650.76)" style="fill:#371a45"/></g><path d="M2400.05,2666.11c-51.23,0-102.82-5.47-143-21.73-48.71-19.72-50.29-96.81-36-142.7,14-45.16,37.85-45.1,47.43-43,47.72,10.59,128.83,13.85,228.39,9.18a95.84,95.84,0,0,1,16,190.87C2479.09,2662.84,2439.67,2666.11,2400.05,2666.11Zm-136.17-171.17c-6.71,7.87-17.42,40.4-13.42,75.59,1.14,10.06,5.4,34.12,20.25,40.12h0c50,20.24,134.4,24.49,237.74,12a59.45,59.45,0,0,0-9.9-118.4C2427.13,2507.58,2329,2508.63,2263.88,2494.94Z" transform="translate(-748.22 -650.76)" style="fill:#371a45"/><path d="M2290.35,2426.55v242.06a81.92,81.92,0,0,1-81.67,81.67H1762.89c-44.85,0-81.61-36.76-81.61-81.67V2426.55a81.86,81.86,0,0,1,81.61-81.61h445.79a81.86,81.86,0,0,1,81.67,81.61Z" transform="translate(-748.22 -650.76)" style="fill:#fff"/><g style="opacity:0.35000000000000003"><path d="M2290.35,2426.56v242.06a81.89,81.89,0,0,1-81.65,81.65H1762.91a81.89,81.89,0,0,1-81.65-81.65v-90.54c67,68.26,198.62,111.11,319.38,111.75,38.8.21,70.1-30.48,72.87-69.19,0-.38,0-.77.09-1.16,3-34,30.94-61.46,64.94-63.91a70.43,70.43,0,0,1,75.23,63c58.45-72.16,41.34-197.58,59.92-241.25A80.91,80.91,0,0,1,2290.35,2426.56Z" transform="translate(-748.22 -650.76)" style="fill:#371a45"/></g><path d="M2208.71,2768.46h-445.8a99.93,99.93,0,0,1-99.82-99.82V2426.55a99.93,99.93,0,0,1,99.82-99.82h445.8a99.93,99.93,0,0,1,99.82,99.82v242.09A99.93,99.93,0,0,1,2208.71,2768.46Zm-445.8-405.34a63.5,63.5,0,0,0-63.44,63.43v242.09a63.51,63.51,0,0,0,63.44,63.44h445.8a63.5,63.5,0,0,0,63.43-63.44V2426.55a63.5,63.5,0,0,0-63.43-63.43Z" transform="translate(-748.22 -650.76)" style="fill:#371a45"/><circle cx="1395.51" cy="1896.84" r="70.4" style="fill:#22a7f0"/><g style="opacity:0.7000000000000001"><path d="M2214.13,2547.6a71.7,71.7,0,0,1-1.37,14.06,70.45,70.45,0,0,0-138.07,0,71.7,71.7,0,0,1-1.37-14.06,70.41,70.41,0,0,1,140.81,0Z" transform="translate(-748.22 -650.76)" style="fill:#fff"/></g><g style="opacity:0.35000000000000003"><path d="M2214.11,2547.58a70.39,70.39,0,1,1-140.77,0,68.77,68.77,0,0,1,4.83-25.47,70.33,70.33,0,0,0,131.11,0A68.77,68.77,0,0,1,2214.11,2547.58Z" transform="translate(-748.22 -650.76)" style="fill:#371a45"/></g><path d="M2143.74,2631.64a84,84,0,1,1,84-84A84.13,84.13,0,0,1,2143.74,2631.64Zm0-140.79a56.75,56.75,0,1,0,56.75,56.75A56.81,56.81,0,0,0,2143.74,2490.85Z" transform="translate(-748.22 -650.76)" style="fill:#371a45"/><path d="M1944.24,2763.92a13.65,13.65,0,0,1-13.64-13.65v-165.8l-89.16-67.12V2344.92a13.65,13.65,0,0,1,27.29,0v158.82l89.16,67.11v179.42A13.65,13.65,0,0,1,1944.24,2763.92Z" transform="translate(-748.22 -650.76)" style="fill:#371a45"/><path d="M1938.77,2852.42" transform="translate(-748.22 -650.76)" style="fill:none;stroke:#371a45;stroke-linecap:round;stroke-miterlimit:10;stroke-width:36.383900000000004px"/><path d="M1994.55,2880.6c78.86,0,154.69-29.26,213.92-81.33,82-72.12,220.15-158.13,372.59-103,61.17,22.13,102.85,62.71,131.29,107.63,73.23-169.7,226.88-179.88,293.37-83.69,0,0-111.77,533.28-148.2,545.15-52.19,17-177.59-.88-177.59-.88s-436.26-59.06-685.38-59.06-685.39,59.06-685.39,59.06-125.4,17.88-177.58.88c-36.43-11.87-148.21-545.15-148.21-545.15,66.49-96.19,220.14-86,293.38,83.69,28.43-44.92,70.12-85.5,131.28-107.63,152.44-55.17,290.56,30.84,372.6,103,59.22,52.07,135,81.33,213.92,81.33Z" transform="translate(-748.22 -650.76)" style="fill:#fff"/><g style="opacity:0.35000000000000003"><path d="M3005.73,2720.23s-111.79,533.3-148.22,545.17c-52.16,17-177.6-.87-177.6-.87s-436.24-59.07-685.38-59.07-685.38,59.07-685.38,59.07-125.39,17.88-177.56.87c-36.42-11.87-148.21-545.17-148.21-545.17a144.17,144.17,0,0,1,39.15-38.61c35.84,156.36,86.69,360.52,109.06,367.79,52.17,17,177.56-.91,177.56-.91s436.29-118.15,685.38-118.15,685.38,118.15,685.38,118.15,125.44,17.88,177.6.91c22.38-7.27,73.23-211.43,109.06-367.79A144.06,144.06,0,0,1,3005.73,2720.23Z" transform="translate(-748.22 -650.76)" style="fill:#371a45"/></g><path d="M1198.83,3290.87c-27.36,0-54.09-2-72.89-8.17-12.82-4.18-23.6-18.39-43.83-81.41-11.84-36.88-26-88.25-42.22-152.68-29.12-116-57.51-246.06-68.36-296.6-5.68-26.46,3-53.82,22.64-71.41,37.72-33.77,88.27-46.77,138.7-35.67,31.78,7,62.7,23.58,89.42,48,22.13,20.21,41.36,45.45,57.4,75.29,32.56-41.53,73.53-71.41,122.16-89,55.09-19.94,112.73-23.89,171.33-11.77,47.31,9.8,95.42,30.12,143,60.4a18.19,18.19,0,0,1-19.54,30.69c-97.89-62.32-192.9-77.49-282.4-45.1-50.47,18.25-91.55,52-122.1,100.25a18.2,18.2,0,0,1-32.08-2.53c-30.6-70.9-79.8-118.53-135-130.68-38.86-8.55-77.72,1.38-106.61,27.25-9.94,8.89-14.28,22.94-11.33,36.67,10.24,47.69,37.08,170.78,65,283.23,15.37,61.81,29,112.09,40.49,149.45,16.1,52.3,24.51,67.65,27.5,71.93,41.11,11.51,133.54,2.21,166.47-2.48h.12c4.38-.59,440.34-59.23,687.83-59.23s683.45,58.64,687.82,59.23l.13,0c32.92,4.68,125.36,14,166.46,2.47,2.94-4.2,11.11-19.1,26.68-69.28,11.23-36.18,24.52-84.93,39.52-144.91,26.74-107,52.37-223.32,65.27-283.16,4.22-19.61-3.13-39.71-18.72-51.21-29.78-22-66.67-28.51-103.89-18.44-53.31,14.41-99,60.28-128.77,129.15a18.19,18.19,0,0,1-32.07,2.53c-30.55-48.27-71.64-82-122.11-100.25-90.27-32.67-186.1-17-284.83,46.66a18.19,18.19,0,1,1-19.71-30.58c47.85-30.84,96.27-51.6,143.91-61.71,59.18-12.56,117.39-8.72,173,11.42,48.63,17.58,89.6,47.46,122.16,89,34.17-63.51,82.71-106.15,138.92-121.35,47.44-12.83,96.64-4,135,24.28,27.1,20,39.93,54.59,32.69,88.16-13.66,63.4-40.74,186.23-68.59,296.5-15.8,62.53-29.67,112.34-41.24,148.06-19.74,60.93-30.34,74.71-43,78.84-55.32,18-179.38.74-185.71-.15-6.84-.93-438.58-58.9-682.89-58.9s-676.06,58-682.9,58.9C1307.48,3283.14,1252,3290.87,1198.83,3290.87Zm-57.65-40.56Z" transform="translate(-748.22 -650.76)" style="fill:#371a45"/><path d="M2825.11,3265.4h32.41a96.31,96.31,0,0,0,88-57.05c48.5-108.61,136.93-347.25,54.1-492.89q-3.61-6.37-7.72-12.26s-79.52-72.33-136.65,30C2801.9,2828.78,2689.9,3237.49,2825.11,3265.4Z" transform="translate(-748.22 -650.76)" style="fill:#afafb2"/><g style="opacity:0.7000000000000001"><path d="M2826,2801.32c1.43-2.29,2.86-4.46,4.25-6.46,70.25-102.32,168-30,168-30a154,154,0,0,1,9.48,12.26,213.91,213.91,0,0,1,23.79,44.46c-4-38.24-13.86-74.41-31.92-106.12q-3.61-6.37-7.72-12.26s-79.52-72.33-136.65,30C2846.61,2748.68,2836.43,2772.34,2826,2801.32Z" transform="translate(-748.22 -650.76)" style="fill:#fff"/></g><path d="M3031.12,2832.5a14.92,14.92,0,0,1-2.48-.21l-198.76-33.18a15,15,0,1,1,4.94-29.59l198.76,33.18a15,15,0,0,1-2.46,29.8Z" transform="translate(-748.22 -650.76)" style="fill:#371a45"/><path d="M3029.86,2939.89a15.36,15.36,0,0,1-2-.14l-232.51-31.26a15,15,0,1,1,4-29.73L3031.84,2910a15,15,0,0,1-2,29.87Z" transform="translate(-748.22 -650.76)" style="fill:#371a45"/><path d="M3009.34,3045.07a16.5,16.5,0,0,1-1.84-.11l-236-28.89a15,15,0,1,1,3.64-29.78l236,28.89a15,15,0,0,1-1.81,29.89Z" transform="translate(-748.22 -650.76)" style="fill:#371a45"/><path d="M2971.91,3159.77c-.45,0-.91,0-1.36-.06l-211-19a15,15,0,0,1,2.69-29.88l211,19a15,15,0,0,1-1.33,29.94Z" transform="translate(-748.22 -650.76)" style="fill:#371a45"/><g style="opacity:0.35000000000000003"><path d="M2825.11,3265.4h32.41a96.31,96.31,0,0,0,88-57.05c12.54-28.15,27.79-65,42.05-106.69-19.45,32.28-59,52.76-102.37,52.76h-38.61c-55-9.53-75.64-63.42-76.46-134.08C2751.56,3139.58,2756.67,3251.26,2825.11,3265.4Z" transform="translate(-748.22 -650.76)" style="fill:#371a45"/></g><path d="M2857.52,3280.4h-32.41a14.7,14.7,0,0,1-3-.31c-26.18-5.4-46-22.39-58.83-50.48-30.29-66.22-15.56-181.59,2.13-266.71,21.61-104,55-198,76.79-237,20-35.9,45.29-56.56,75-61.42,45.62-7.44,83.23,26.21,84.81,27.65a14.67,14.67,0,0,1,2.21,2.51c3,4.28,5.84,8.8,8.47,13.44,37.85,66.56,45.89,157.61,23.87,270.6-17.89,91.86-51.93,178.94-77.33,235.81A111.43,111.43,0,0,1,2857.52,3280.4Zm-30.77-30h30.77a81.43,81.43,0,0,0,74.32-48.15c24.76-55.46,57.92-140.25,75.28-229.33,20.6-105.75,13.7-189.88-20.52-250-1.86-3.28-3.85-6.48-5.92-9.54-5.62-4.59-31.15-23.86-58.82-19.24-20.18,3.37-38.18,19-53.49,46.41-20.18,36.14-52.84,128.51-73.62,228.5-23.71,114.11-25.21,202.23-4.21,248.13C2799.06,3235.77,2810.91,3246.67,2826.75,3250.4Z" transform="translate(-748.22 -650.76)" style="fill:#371a45"/><path d="M1164,3265.4h-32.4a96.29,96.29,0,0,1-88-57.05c-48.51-108.61-136.94-347.25-54.11-492.89q3.62-6.37,7.73-12.26s79.52-72.33,136.64,30C1187.19,2828.78,1299.2,3237.49,1164,3265.4Z" transform="translate(-748.22 -650.76)" style="fill:#afafb2"/><g style="opacity:0.7000000000000001"><path d="M1163.08,2801.32c-1.43-2.29-2.86-4.46-4.25-6.46-70.24-102.32-168-30-168-30a154,154,0,0,0-9.48,12.26,214.34,214.34,0,0,0-23.78,44.46c4-38.24,13.85-74.41,31.91-106.12q3.62-6.37,7.73-12.26s79.52-72.33,136.64,30C1142.49,2748.68,1152.66,2772.34,1163.08,2801.32Z" transform="translate(-748.22 -650.76)" style="fill:#fff"/></g><path d="M958,2832.5a15,15,0,0,1-2.45-29.8l198.76-33.18a15,15,0,0,1,4.94,29.59l-198.76,33.18A15.13,15.13,0,0,1,958,2832.5Z" transform="translate(-748.22 -650.76)" style="fill:#371a45"/><path d="M959.24,2939.89a15,15,0,0,1-2-29.87l232.51-31.26a15,15,0,0,1,4,29.73l-232.52,31.26A15.21,15.21,0,0,1,959.24,2939.89Z" transform="translate(-748.22 -650.76)" style="fill:#371a45"/><path d="M979.75,3045.07a15,15,0,0,1-1.8-29.89l236-28.89a15,15,0,0,1,3.65,29.78l-236,28.89A16.36,16.36,0,0,1,979.75,3045.07Z" transform="translate(-748.22 -650.76)" style="fill:#371a45"/><path d="M1017.18,3159.77a15,15,0,0,1-1.33-29.94l211-19a15,15,0,1,1,2.7,29.88l-211,19C1018.09,3159.75,1017.63,3159.77,1017.18,3159.77Z" transform="translate(-748.22 -650.76)" style="fill:#371a45"/><g style="opacity:0.35000000000000003"><path d="M1164,3265.4h-32.4a96.29,96.29,0,0,1-88-57.05c-12.55-28.15-27.79-65-42-106.69,19.45,32.28,59,52.76,102.36,52.76h38.62c55-9.53,75.63-63.42,76.45-134.08C1237.53,3139.58,1232.43,3251.26,1164,3265.4Z" transform="translate(-748.22 -650.76)" style="fill:#371a45"/></g><path d="M1164,3280.4h-32.4a111.44,111.44,0,0,1-101.72-65.94c-25.4-56.86-59.43-143.94-77.33-235.8-22-113-14-204,23.89-270.61,2.62-4.63,5.47-9.16,8.46-13.43a15.05,15.05,0,0,1,2.2-2.51c1.58-1.44,39.19-35.09,84.81-27.65,29.74,4.86,55,25.52,75,61.42,21.8,39,55.18,133,76.8,237,17.68,85.12,32.41,200.49,2.12,266.71-12.85,28.09-32.64,45.08-58.83,50.48A14.7,14.7,0,0,1,1164,3280.4Zm-155.57-567.06c-2.07,3.06-4,6.25-5.91,9.52C968.28,2783,961.37,2867.17,982,2972.92c17.35,89.08,50.51,173.87,75.27,229.32a81.43,81.43,0,0,0,74.33,48.16h30.77c15.83-3.73,27.68-14.63,36.21-33.26,21-45.9,19.5-134-4.22-248.13-20.77-100-53.43-192.36-73.61-228.5-15.32-27.43-33.31-43-53.49-46.41C1039.61,2689.5,1014.1,2708.7,1008.41,2713.34Z" transform="translate(-748.22 -650.76)" style="fill:#371a45"/><path d="M1529.72,3251.71a13.65,13.65,0,0,1-12.07-20c57-108.85,57.81-231.26,2.5-363.84-41.72-100-101.46-168.41-102.06-169.09a13.64,13.64,0,1,1,20.46-18.05c2.55,2.89,62.94,71.93,106.46,175.87,25.68,61.33,40,122,42.58,180.39,3.24,73.39-12.16,143.16-45.77,207.38A13.64,13.64,0,0,1,1529.72,3251.71Z" transform="translate(-748.22 -650.76)" style="fill:#371a45"/><path d="M2464.91,3251.71a13.66,13.66,0,0,1-12.1-7.32c-33.61-64.22-49-134-45.77-207.38,2.58-58.37,16.91-119.06,42.59-180.39,43.52-103.94,103.91-173,106.46-175.87a13.64,13.64,0,0,1,20.46,18.05h0c-.6.68-60.34,69.1-102.06,169.09-55.31,132.58-54.47,255,2.5,363.84a13.65,13.65,0,0,1-12.08,20Z" transform="translate(-748.22 -650.76)" style="fill:#371a45"/><g style="opacity:0.35000000000000003"><path d="M2446.66,1940.92a697,697,0,0,1-49.53,51.17,640,640,0,0,1-133.76,96.23c-81,43.48-171,67.86-265.65,68.32-92.5.41-180.55-22.06-260.37-62.9-52.26-26.79-101-61.4-145-102.65a718.79,718.79,0,0,1-62.21-66.31c35.34-10.92,70.45-23.56,102.6-36.07a2950.27,2950.27,0,0,1,140.81-293.21h442.11c44.89,81.46,84.5,162.87,119.43,243C2368.34,1858,2406.68,1894.53,2446.66,1940.92Z" transform="translate(-748.22 -650.76)" style="fill:#371a45"/></g><path d="M2669.69,1501.72h0a14,14,0,0,1-15.44-12.44l-43.15-401.55a14,14,0,0,1,12.44-15.44h0a147.1,147.1,0,0,1,162,130.54l14.71,136.92A147.09,147.09,0,0,1,2669.69,1501.72Z" transform="translate(-748.22 -650.76)" style="fill:#fff"/><path d="M2668.16,1505.26a17.48,17.48,0,0,1-17.35-15.61l-43.15-401.55a17.48,17.48,0,0,1,15.51-19.24c82.55-8.87,156.9,51.06,165.77,133.6l14.72,136.93a150.56,150.56,0,0,1-133.6,165.77l-.37-3.44.37,3.44C2669.42,1505.22,2668.79,1505.26,2668.16,1505.26Zm-28.79-430.36a144.09,144.09,0,0,0-15.46.83,10.58,10.58,0,0,0-9.37,11.63l43.15,401.55a10.56,10.56,0,0,0,11.63,9.37h0a143.62,143.62,0,0,0,127.46-158.16l-14.71-136.92C2774.17,1129.64,2711.74,1074.9,2639.37,1074.9Z" transform="translate(-748.22 -650.76)" style="fill:#371a45"/><g style="opacity:0.35000000000000003"><path d="M2793.32,1275.55l6.92,64.22a147.16,147.16,0,0,1-130.56,162,14.05,14.05,0,0,1-15.44-12.47l-11.51-106.75a14,14,0,0,0,13.58,6.91l9.52-1A147,147,0,0,0,2793.32,1275.55Z" transform="translate(-748.22 -650.76)" style="fill:#371a45"/></g><path d="M2668.13,1521a33.25,33.25,0,0,1-33-29.71L2592,1089.79a33.26,33.26,0,0,1,29.52-36.63c91.17-9.79,173.35,56.42,183.15,147.61l14.71,136.93a166.33,166.33,0,0,1-147.61,183.15h0A33.71,33.71,0,0,1,2668.13,1521Zm-.49-38.45h0ZM2630.8,1091l42,391a127.85,127.85,0,0,0,108.28-140.12l-14.71-136.93A128,128,0,0,0,2630.8,1091Z" transform="translate(-748.22 -650.76)" style="fill:#371a45"/><path d="M1298.14,1214.72h0a14,14,0,0,1,15.44,12.44l43.15,401.55a14,14,0,0,1-12.44,15.44h0a147.1,147.1,0,0,1-162-130.54l-14.71-136.92A147.09,147.09,0,0,1,1298.14,1214.72Z" transform="translate(-748.22 -650.76)" style="fill:#fff"/><path d="M1328.46,1648.45c-75.87,0-141.29-57.37-149.57-134.47l-14.72-136.92c-8.87-82.54,51.06-156.91,133.6-165.77l.37,3.43-.37-3.43a17.5,17.5,0,0,1,19.25,15.5l43.15,401.55a17.5,17.5,0,0,1-15.51,19.24A150.25,150.25,0,0,1,1328.46,1648.45Zm-28.81-430.35a10.88,10.88,0,0,0-1.14.06c-78.75,8.46-135.93,79.41-127.47,158.16l14.72,136.92c8.46,78.75,79.4,135.93,158.16,127.47a10.57,10.57,0,0,0,9.37-11.63l-43.15-401.55A10.57,10.57,0,0,0,1299.65,1218.1Z" transform="translate(-748.22 -650.76)" style="fill:#371a45"/><g style="opacity:0.35000000000000003"><path d="M1344.79,1517.31l12,111.4a14.06,14.06,0,0,1-12.47,15.44,147,147,0,0,1-161.94-130.51l-6.2-57.7a147.14,147.14,0,0,0,142.46,71.58l14.65-1.58A14.17,14.17,0,0,0,1344.79,1517.31Z" transform="translate(-748.22 -650.76)" style="fill:#371a45"/></g><path d="M1328.45,1664.24c-83.82,0-156.1-63.39-165.26-148.57l-14.71-136.93c-9.8-91.19,56.41-173.35,147.61-183.15h0a33.31,33.31,0,0,1,36.62,29.52l43.15,401.54a33.3,33.3,0,0,1-29.52,36.63A168.94,168.94,0,0,1,1328.45,1664.24ZM1295,1234.51c-67.41,10-115.63,71.76-108.28,140.12l14.71,136.93A128,128,0,0,0,1337,1625.47Z" transform="translate(-748.22 -650.76)" style="fill:#371a45"/><circle cx="1235.77" cy="707.46" r="688.2" style="fill:#fff"/><path d="M1983.32,2049.88a695,695,0,1,1,25.61-.46Q1996.11,2049.89,1983.32,2049.88Zm1-1376.42c-8.32,0-16.63.15-25,.45-377.32,13.61-673.22,331.66-659.61,709,6.59,182.78,84,352.06,217.88,476.64,127.71,118.82,292.28,183.43,465.8,183.43q12.63,0,25.3-.46c182.79-6.59,352.06-84,476.65-217.88s189.56-308.32,183-491.11C2655,964.58,2350.57,673.46,1984.32,673.46Z" transform="translate(-748.22 -650.76)" style="fill:#371a45"/><g style="opacity:0.35000000000000003"><path d="M2661.73,1238.43a685.13,685.13,0,0,1,10,95c13.65,379.82-283.15,698.84-663,712.58S1310,1762.85,1296.22,1383c-.4-10.93-.54-21.87-.41-32.65,58.44,333.12,355,580.52,702.54,568C2367.25,1905,2657.78,1603.75,2661.73,1238.43Z" transform="translate(-748.22 -650.76)" style="fill:#371a45"/></g><path d="M1983.31,2065.67a712.08,712.08,0,1,1,26.19-.48Q1996.39,2065.67,1983.31,2065.67Zm1-1376.43c-8.13,0-16.24.15-24.43.44-368.63,13.3-657.71,324-644.41,692.65,6.44,178.57,82,343.94,212.86,465.66,124.77,116.08,285.55,179.19,455.07,179.2q12.33,0,24.72-.45c178.57-6.44,343.94-82,465.65-212.86s185.2-301.22,178.76-479.79C2639.52,973.66,2342.12,689.24,1984.31,689.24Z" transform="translate(-748.22 -650.76)" style="fill:#371a45"/><path d="M2670.19,1351.14c6.89,134.5-30.38,261.6-99.75,368.74-52,80.31-275.19,227.65-559.21,244.76C1747.89,1980.5,1501,1852.3,1441,1777.71c-80-99.48-130-222.11-136.9-356.61-18.22-355.91,280-519.12,657.25-538.44S2652,995.23,2670.19,1351.14Z" transform="translate(-748.22 -650.76)" style="fill:#371a45"/><path d="M1965.54,1979.22c-131,0-244.84-32.64-320.44-61.79-95.73-36.92-179.88-88.51-214.37-131.43-84.65-105.33-133-231.27-139.8-364.22-4.52-88.22,10-168.27,43.22-237.93,31.25-65.56,79.18-122.37,142.48-168.85,115.64-84.92,283-135.24,484.07-145.54s372.7,22.67,496.41,95.33c67.71,39.77,121.2,91.39,159,153.41,40.14,65.9,62.79,144,67.3,232.27h0c6.81,133-28.41,263.17-101.85,376.59-30.52,47.12-106.3,104.88-197.78,150.72-80.35,40.27-210.07,90.32-371.73,100Q1988.48,1979.26,1965.54,1979.22Zm66.14-1085.17q-34.15,0-69.63,1.82c-195.86,10-358.31,58.59-469.77,140.45-124.46,91.39-183.32,220.62-174.94,384.11,6.52,127.36,52.85,248,134,349,24.14,30,91.86,80.36,203.27,123.33,82,31.61,210.23,67.45,355.83,58.68,157.19-9.47,283.33-58.14,361.48-97.3,104.71-52.48,166.41-109,187.42-141.45,70.4-108.72,104.17-233.51,97.65-360.87h0c-8.37-163.48-80.13-286-213.27-364.23C2338.88,926,2197.43,894.05,2031.68,894.05Z" transform="translate(-748.22 -650.76)" style="fill:#371a45"/><g style="opacity:0.5"><ellipse cx="2445.73" cy="1314.16" rx="121.79" ry="88.25" transform="matrix(0.13, -0.99, 0.99, 0.13, 81.69, 2921.23)" style="fill:#fff"/></g><g style="opacity:0.5"><ellipse cx="2350.1" cy="1560.63" rx="55.9" ry="47.97" transform="matrix(0.26, -0.96, 0.96, 0.26, -522.96, 2765.56)" style="fill:#fff"/></g><g style="opacity:0.35000000000000003"><path d="M2520.34,1025.91c87.58,75.4,142.5,182.27,149.84,325.21,6.89,134.53-30.4,261.62-99.72,368.76-52,80.31-275.23,227.65-559.24,244.78-100.28,6.07-198.15-8.79-284.27-33.66,348.67-28.5,620.47-209.23,685-308.84,88.06-136,135.34-297.31,126.58-468A696.72,696.72,0,0,0,2520.34,1025.91Z" transform="translate(-748.22 -650.76)" style="fill:#111a28"/></g><path d="M1340,1133.48a18.51,18.51,0,0,1-15.43-28.7c28.56-46.92,65-89.8,108.39-127.44,42.22-36.64,91.32-68.63,145.93-95.08,53.48-25.88,112.57-46.63,175.65-61.65,62.51-14.88,129.25-24.22,198.36-27.76,68-3.48,134.59-1.13,198,7,64,8.18,124.8,22.25,180.77,41.81,57.27,20,109.67,45.85,155.74,76.8,47.37,31.81,88.35,69.23,121.81,111.23a18.51,18.51,0,0,1-25,27.12l-1.94-1.45-1.46-1.86c-123.9-156.16-352.08-237.67-626-223.65-275.48,14.11-493.77,121.51-598.89,294.66l-.48.79-.62.83A18.47,18.47,0,0,1,1340,1133.48Z" transform="translate(-748.22 -650.76)" style="fill:#371a45"/><g style="opacity:0.5"><path d="M1468.37,1625s-128.21-345.47,53.85-495.07,454.32-163,448.85-145.2c0,0-297.65,88.39-403.37,332.7C1486.17,1505.8,1468.37,1625,1468.37,1625Z" transform="translate(-748.22 -650.76)" style="fill:#fff"/></g><path d="M2726.77,2808.05c-.41,3-1,6.28-1.58,9.41s-1.29,6.3-2,9.45c-1.39,6.29-2.92,12.54-4.53,18.78-3.18,12.48-6.9,24.85-10.4,37.3s-6.91,24.93-10.2,37.51l-2.38,9.46c-.85,3.16-1.57,6.33-2.34,9.51l-1.14,4.78-.59,2.4-.52,2.4c-.69,3.21-1.42,6.43-2.23,9.68l0,.11a2.19,2.19,0,0,1-2.65,1.59,2.16,2.16,0,0,1-1.61-1.7,188.09,188.09,0,0,1-3-20l-.51-5.05c-.15-1.69-.21-3.36-.32-5-.17-3.36-.36-6.74-.45-10.11a400.53,400.53,0,0,1,1.28-40.28,359.87,359.87,0,0,1,5.3-39.76c1.28-6.55,2.78-13,4.57-19.48.89-3.21,1.85-6.42,2.9-9.6s2.18-6.3,3.54-9.57a15.1,15.1,0,0,1,28.91,7.81Z" transform="translate(-748.22 -650.76)" style="fill:#371a45"/><path d="M1292.47,2799.82c1.36,3.27,2.48,6.36,3.54,9.57s2,6.39,2.9,9.6c1.79,6.43,3.29,12.93,4.57,19.48a362.27,362.27,0,0,1,5.3,39.76,400.53,400.53,0,0,1,1.28,40.28c-.09,3.37-.28,6.75-.45,10.11-.11,1.68-.17,3.35-.32,5l-.52,5.05a185.54,185.54,0,0,1-3,20,2.18,2.18,0,0,1-2.56,1.73,2.2,2.2,0,0,1-1.7-1.62l0-.11c-.81-3.25-1.55-6.47-2.23-9.68l-.52-2.4-.59-2.4-1.14-4.78c-.77-3.18-1.49-6.35-2.35-9.51l-2.37-9.46c-3.29-12.58-6.73-25.06-10.2-37.51s-7.22-24.82-10.4-37.3c-1.61-6.24-3.14-12.49-4.53-18.78-.67-3.15-1.36-6.28-2-9.45s-1.17-6.37-1.58-9.41l-.06-.41a15.1,15.1,0,0,1,28.91-7.82Z" transform="translate(-748.22 -650.76)" style="fill:#371a45"/><path d="M608.57,2541.46H1889.8a41.23,41.23,0,0,1,41.23,41.23v0a71.56,71.56,0,0,1-71.56,71.56H638.91a71.56,71.56,0,0,1-71.56-71.56v0a41.23,41.23,0,0,1,41.23-41.23Z" style="fill:#1698f9"/><g style="opacity:0.30000000000000004"><path d="M2679.24,3233.44a71.38,71.38,0,0,1-3.6,22.38A41.1,41.1,0,0,0,2638,3231.4H1356.82a41.32,41.32,0,0,0-37.66,24.42,71.37,71.37,0,0,1-3.59-22.38,41.29,41.29,0,0,1,41.25-41.25H2638A41.21,41.21,0,0,1,2679.24,3233.44Z" transform="translate(-748.22 -650.76)" style="fill:#fff"/></g><g style="opacity:0.35000000000000003"><path d="M2679.24,3233.44A71.58,71.58,0,0,1,2607.7,3305H1387.15a71.56,71.56,0,0,1-71.58-71.54,40.78,40.78,0,0,1,5.68-20.87,71.57,71.57,0,0,0,65.9,43.61H2607.7a71.58,71.58,0,0,0,65.85-43.61A40.78,40.78,0,0,1,2679.24,3233.44Z" transform="translate(-748.22 -650.76)" style="fill:#371a45"/></g><path d="M2607.7,3323.19H1387.13a89.85,89.85,0,0,1-89.75-89.75A59.49,59.49,0,0,1,1356.8,3174H2638a59.49,59.49,0,0,1,59.42,59.42A89.86,89.86,0,0,1,2607.7,3323.19ZM1356.8,3210.4a23.07,23.07,0,0,0-23,23,53.43,53.43,0,0,0,53.37,53.37H2607.7a53.43,53.43,0,0,0,53.36-53.37,23.06,23.06,0,0,0-23-23Z" transform="translate(-748.22 -650.76)" style="fill:#371a45"/><path d="M2750.5,2386.56l-119.38,805.63H1363.73l-4.32-29.15L1244.3,2386.56a42.21,42.21,0,0,1,41.75-48.39h1422.7A42.19,42.19,0,0,1,2750.5,2386.56Z" transform="translate(-748.22 -650.76)" style="fill:#ff66ac"/><path d="M2750.5,2386.56l-119.38,805.63H1363.73l-4.32-29.15L1244.3,2386.56a42.21,42.21,0,0,1,41.75-48.39h1422.7A42.19,42.19,0,0,1,2750.5,2386.56Z" transform="translate(-748.22 -650.76)" style="fill:#1698f9"/><g style="opacity:0.5"><path d="M1289.3,2436.56a42.21,42.21,0,0,1,41.75-48.39H2750.27l.23-1.61a42.19,42.19,0,0,0-41.75-48.39H1286.05a42.21,42.21,0,0,0-41.75,48.39L1359.41,3163l4.32,29.15h37.59Z" transform="translate(-748.22 -650.76)" style="fill:#fff"/></g><g style="opacity:0.35000000000000003"><path d="M2668.75,2338.17h-99.9c37.89,138.78,17,452.16-227.4,615.94-306.78,205.6-859.66,204.29-977,208.93l4.32,29.15H2591.12l119.38-805.63A42.19,42.19,0,0,0,2668.75,2338.17Z" transform="translate(-748.22 -650.76)" style="fill:#371a45"/></g><path d="M2646.79,3210.4H1348l-121.71-821.19a60.4,60.4,0,0,1,59.73-69.24H2708.77a60.38,60.38,0,0,1,59.74,69.24ZM1379.42,3174h1236l117.12-790.14a24,24,0,0,0-23.75-27.52H1286.05a24,24,0,0,0-23.74,27.52Z" transform="translate(-748.22 -650.76)" style="fill:#371a45"/><g style="opacity:0.30000000000000004"><path d="M1464.61,3004c-48.08-106-83.09-286.89-75.2-393.36s69.64-73.9,88.78,62.49C1529.13,3036.06,1486.08,3051.29,1464.61,3004Z" transform="translate(-748.22 -650.76)" style="fill:#fff"/></g><path d="M2744.21,2429.07s-98.22-46.61-190.46-4.8c-88.33,40-150.82,325.1-36.38,397.31,70.62,44.57,118.7,5.2,158.67,16.76C2735.31,2855.48,2856.92,2562,2744.21,2429.07Z" transform="translate(-748.22 -650.76)" style="fill:#fff"/><g style="opacity:0.35000000000000003"><path d="M2788.53,2614.57c-11.65,119.48-74.73,234.68-112.47,223.76-40-11.55-88,27.84-158.68-16.73-54.67-34.52-69-117.57-59.31-199.34,6.5,47.71,24.92,88.59,59.31,110.29,70.63,44.52,117.65,23.83,158.68,16.73C2726.77,2740.51,2768.11,2685.11,2788.53,2614.57Z" transform="translate(-748.22 -650.76)" style="fill:#371a45"/></g><path d="M2589.79,2861.57c-23.83,0-51.41-5.21-82.13-24.6-27.51-17.36-47.38-45.45-59-83.49-9.8-31.92-13.47-70.82-10.6-112.49,3.4-49.35,15.53-100,34.16-142.56,14.25-32.53,38.65-74.68,74.07-90.73,98.79-44.78,201.45,2.88,205.77,4.93l3.54,1.68,2.53,3c51.59,60.82,54.56,144.84,48,204.62-7.43,67.35-31.2,138.79-62,186.45s-56.76,52.15-73,47.44c-10.56-3-23.89-.91-39.32,1.56C2619.44,2859.33,2605.42,2861.57,2589.79,2861.57Zm48-436.58c-27.65,0-53.28,5.3-76.56,15.85-19.15,8.68-39.47,35-55.75,72.18-16.76,38.28-28.13,85.84-31.2,130.47-5.42,78.82,13.81,138.13,52.76,162.71,39.28,24.78,69.56,19.93,98.85,15.24,18.93-3,36.81-5.89,55.17-.58,2.11.37,17.25-5.47,38.6-42.46,49.8-86.25,81.37-249.14,13.25-334.4a260.55,260.55,0,0,0-53.59-15.28A242,242,0,0,0,2637.82,2425Z" transform="translate(-748.22 -650.76)" style="fill:#371a45"/><path d="M3018.89,1391.42a237.42,237.42,0,0,1-65.32-137.64c-8.92-75.25,61.56-252.49,208.8-264.89,152.13-12.82,274.55,159.73,248.86,227.49-18.12,47.77-114.55,55.73-171.61,60.44-19.27,1.59-95.9,6.53-187.1-27.51a456.8,456.8,0,0,1-99-51.57c-2.82,18.37-4.56,45.59,3.82,75.94,12.48,45.22,37.34,60.89,53,96.7,11.51,26.33,19.69,67.3,1.48,129.62Z" transform="translate(-748.22 -650.76)" style="fill:#ff0068"/><path d="M3011.81,1517.5a17.49,17.49,0,0,1-17.46-18.64l6.58-101a255.58,255.58,0,1,1,114.39,72.67l-96,45.31A17.53,17.53,0,0,1,3011.81,1517.5Zm178.77-512.78a222.56,222.56,0,0,0-26.16,1.54,221,221,0,0,0-133,373,17.51,17.51,0,0,1,4.88,13.3l-5.15,79,75.44-35.59a17.54,17.54,0,0,1,13.08-.75,218.92,218.92,0,0,0,96.69,10c121-14.33,207.81-124.45,193.48-245.47C3396.6,1087.52,3300.92,1004.72,3190.58,1004.72Z" transform="translate(-748.22 -650.76)" style="fill:#371a45"/><g style="opacity:0.30000000000000004"><path d="M3017.08,1389.47c75.82,39.66,168.93,43.61,251.29,2.39,91.33-45.72,146.11-135.33,151.73-230.45a240.1,240.1,0,0,1,7.17,36.28c15.49,130.81-78,249.4-208.81,264.9a237.68,237.68,0,0,1-104.35-10.85L3011.81,1500l7.08-108.58C3018.27,1390.78,3017.69,1390.12,3017.08,1389.47Z" transform="translate(-748.22 -650.76)" style="fill:#371a45"/></g><path d="M1927.23,2640.83l53.81-36.89,17.42-11.28v-34.33l-105.56,78.4,43,123.51-40.48,121.45,108.13,59.95v-37.92l-20-9.77-55.37-27.12,20-78.92,35.87,3.59q.26,23.31.52,46.63-.78,14.09-1.54,28.18l.54,27.64,20,9.77-5.13-311.06L1981,2603.94q-.94,71.49-1.9,143l-23.72,1.54Q1941.32,2694.65,1927.23,2640.83Z" transform="translate(-748.22 -650.76)" style="fill:#231f20"/><path d="M2015.37,2938.57l-6.66-377.17,102,71.75-39.46,124.74,30.75,107.4-30.24,25.11-18.45-103-24.66-1.63q1.57-20.45,3.14-40.91l25.62,2.56,16.4-94.8L2027.67,2608q2.05,68.41,4.1,136.82l11.79,169.62Z" transform="translate(-748.22 -650.76)" style="fill:#231f20"/><path d="M3243.52,1402c-10.57,4.16-58.16,22.16-110.75,19.26-17.81-1-32.52-4.15-61.95-10.5-16.87-3.64-21.58-5.32-26.79-8.76-12.76-8.42-15.86-19-30-43.57-13.5-23.41-13.28-18.3-20.95-33.08-2.81-5.41-15.89-31.26-21.24-68.5a231.11,231.11,0,0,1-1.79-48.3c5.81,3.61,14.26,8.65,24.72,14.14,46.39,24.34,85.84,33.19,114.65,39.44,15.11,3.27,73.41,15.29,150,12.61,51.19-1.8,73.37-8.86,84.8-13.1a214.31,214.31,0,0,0,65.25-38.68,273.52,273.52,0,0,1-35.17,75.17C3331.54,1361.77,3272.82,1390.48,3243.52,1402Z" transform="translate(-748.22 -650.76)" style="fill:#fff"/></svg>